<svg xmlns="http://www.w3.org/2000/svg" viewBox="0 0 128 128" fill="#000000"><path d="M 72.199219 13.900391 C 64.999219 13.900391 59.199219 19.700391 59.199219 26.900391 C 59.199219 30.494444 60.702305 33.808918 63.140625 36.193359 C 62.926567 36.197536 62.714798 36.191682 62.5 36.199219 C 58.7 36.299219 59.600781 42.200391 61.300781 46.400391 C 66.600781 59.300391 82.600781 80.5 41.800781 80.5 C 36.272835 80.5 36.705346 86.626519 38.611328 90.625 C 31.984455 89.140658 27 83.29688 27 76.400391 C 27 75.500391 26.999609 74.5 27.099609 73.5 C 28.099609 60.1 36.299609 48.500391 48.099609 42.900391 C 49.599609 42.200391 50.2 40.400391 49.5 38.900391 L 49.5 38.800781 C 48.8 37.300781 46.999609 36.700391 45.599609 37.400391 C 31.799609 43.900391 22.299609 57.4 21.099609 73 C 20.999609 74.1 21 75.300391 21 76.400391 C 21 86.792471 28.9515 95.487322 39.173828 96.818359 C 39.493235 96.929464 39.833951 97 40.199219 97 L 41.900391 97 L 80.699219 97 L 79.791016 106.0918 C 79.601938 106.04367 79.404245 106.01206 79.199219 106 C 77.599219 105.9 76.1 107.10078 76 108.80078 L 75.1875 121 L 67 121 L 67 109 C 67 107.3 65.7 106 64 106 C 62.3 106 61 107.3 61 109 L 61 121 L 52.8125 121 L 52 108.80078 C 51.9 107.10078 50.400781 105.9 48.800781 106 C 47.100781 106.1 45.9 107.49922 46 109.19922 L 46.787109 121 L 40.699219 121 L 38.199219 102.30078 C 37.999219 100.60078 36.400781 99.499219 34.800781 99.699219 C 33.100781 99.899219 31.999219 101.49961 32.199219 103.09961 L 35 124.40039 C 35.2 125.90039 36.5 127 38 127 L 90 127 L 104 127 C 105.7 127 107 125.7 107 124 C 107 122.3 105.7 121 104 121 L 93.453125 121 L 97 94.400391 C 97.018156 94.236989 97.015892 94.080637 97.013672 93.923828 C 102.95226 90.299869 106.93486 83.826915 107 76.400391 L 107 76.199219 C 107 58.644549 96.415616 43.282781 80.761719 36.679688 C 83.480004 34.300042 85.199219 30.81205 85.199219 26.900391 C 85.199219 19.700391 79.399219 13.900391 72.199219 13.900391 z M 69.099609 21.574219 C 69.874609 21.574219 70.649219 21.850391 71.199219 22.400391 C 71.299219 22.500391 71.499609 22.700391 71.599609 22.900391 C 71.699609 23.100391 71.800391 23.200391 71.900391 23.400391 C 72.000391 23.600391 71.999609 23.8 72.099609 24 C 72.099609 24.2 72.199219 24.399609 72.199219 24.599609 C 72.099219 25.299609 71.799219 26.099609 71.199219 26.599609 C 71.099219 26.699609 70.899219 26.9 70.699219 27 C 70.499219 27.1 70.399219 27.200781 70.199219 27.300781 C 69.999219 27.400781 69.799609 27.4 69.599609 27.5 C 69.399609 27.5 69.2 27.599609 69 27.599609 C 68.2 27.599609 67.400391 27.299219 66.900391 26.699219 C 66.300391 26.099219 66 25.399609 66 24.599609 C 66 24.399609 65.999609 24.2 66.099609 24 C 66.099609 23.8 66.200781 23.600391 66.300781 23.400391 C 66.400781 23.200391 66.499609 23.000391 66.599609 22.900391 C 66.699609 22.700391 66.8 22.600391 67 22.400391 C 67.55 21.850391 68.324609 21.574219 69.099609 21.574219 z M 52 57.099609 A 4 4 0 0 0 48 61.099609 A 4 4 0 0 0 52 65.099609 A 4 4 0 0 0 56 61.099609 A 4 4 0 0 0 52 57.099609 z M 35 69.099609 A 4 4 0 0 0 31 73.099609 A 4 4 0 0 0 35 77.099609 A 4 4 0 0 0 39 73.099609 A 4 4 0 0 0 35 69.099609 z M 119 120.82422 C 118.8 120.82422 118.60039 120.85039 118.40039 120.90039 C 118.20039 121.00039 118.00078 120.99961 117.80078 121.09961 C 117.60078 121.19961 117.50078 121.30039 117.30078 121.40039 C 117.10078 121.50039 116.90078 121.70078 116.80078 121.80078 C 116.20078 122.30078 115.90039 123.10039 115.90039 123.90039 C 115.90039 124.10039 116 124.3 116 124.5 C 116.1 124.7 116.09922 124.89961 116.19922 125.09961 C 116.29922 125.29961 116.4 125.39961 116.5 125.59961 C 116.6 125.79961 116.80039 125.99961 116.90039 126.09961 C 117.40039 126.69961 118.2 127 119 127 L 119.5 127 C 119.7 126.9 119.89961 126.90078 120.09961 126.80078 C 120.29961 126.70078 120.39961 126.6 120.59961 126.5 C 120.79961 126.4 120.99961 126.19961 121.09961 126.09961 C 121.29961 125.89961 121.4 125.79961 121.5 125.59961 C 121.6 125.49961 121.70078 125.29961 121.80078 125.09961 C 121.90078 124.89961 122 124.7 122 124.5 C 122.1 124.3 122.09961 124.10039 122.09961 123.90039 C 122.09961 123.10039 121.79922 122.40078 121.19922 121.80078 C 120.99922 121.60078 120.89922 121.50039 120.69922 121.40039 C 120.59922 121.30039 120.39922 121.19961 120.19922 121.09961 C 119.99922 120.99961 119.79961 120.90039 119.59961 120.90039 C 119.39961 120.85039 119.2 120.82422 119 120.82422 z"></path></svg>